<?xml version="1.0" encoding="utf-8"?><svg version="1.1" id="Layer_1" xmlns="http://www.w3.org/2000/svg" xmlns:xlink="http://www.w3.org/1999/xlink" x="0px" y="0px" viewBox="0 0 122.879 109.659" enable-background="new 0 0 122.879 109.659" xml:space="preserve"><g><path fill-rule="evenodd" clip-rule="evenodd" d="M101.831,1.242l5.49,5.49c1.656,1.656,1.655,4.367,0,6.022L88.166,31.91 l3.075,2.945l19.066-19.066c1.633-1.633,4.303-1.632,5.936,0l5.411,5.411c1.633,1.633,1.633,4.304,0,5.937L98.608,50.182 c-1.632,1.632-4.304,1.633-5.937,0l-5.411-5.412c-1.632-1.633-1.633-4.303,0-5.937l1.256-1.255l-2.993-3.027l-5.781,5.781v65.128 c0,2.306-1.892,4.198-4.197,4.198h-7.652c-2.306,0-4.197-1.889-4.197-4.198v-49.04h-4.511v49.04c0,2.31-1.892,4.198-4.197,4.198 h-7.652c-2.306,0-4.198-1.893-4.198-4.198V40.333l-5.782-5.781l-2.993,3.027l1.256,1.255c1.633,1.633,1.632,4.304,0,5.937 l-5.411,5.412c-1.633,1.633-4.304,1.632-5.937,0L1.225,27.136c-1.632-1.633-1.633-4.304,0-5.937l5.411-5.411 c1.633-1.632,4.303-1.633,5.936,0l19.066,19.066l3.075-2.945L15.558,12.754c-1.656-1.656-1.657-4.366,0-6.022l5.489-5.49 c1.657-1.656,4.366-1.657,6.023,0L57.969,32.14c0.95,0.95,1.355,2.247,1.215,3.492v3.773h4.511v-3.773 c-0.141-1.246,0.265-2.542,1.215-3.492L95.809,1.242C97.466-0.415,100.175-0.414,101.831,1.242L101.831,1.242z M63.695,52.038 v-8.25h-4.511v8.25H63.695L63.695,52.038z"/></g></svg>